<?xml version="1.0" encoding="utf-8" standalone="yes"?> <svg width="1000" height="1000" viewBox="-1 -1 51 51" xmlns="http://www.w3.org/2000/svg" xmlns:xlink="http://www.w3.org/1999/xlink" shape-rendering="crispEdges" id="qr code"><rect id="qr background" fill-opacity="1" fill="rgb(255, 255, 255)" x="-1" y="-1" width="51" height="51"></rect><path fill-opacity="1" fill="rgb(0, 0, 0)" id="qr dark pixels" fill-rule="evenodd" d="M 8 0 L 12 0 L 12 1 L 13 1 L 13 2 L 12 2 L 12 3 L 13 3 L 13 2 L 14 2 L 14 4 L 12 4 L 12 6 L 11 6 L 11 7 L 10 7 L 10 6 L 9 6 L 9 7 L 10 7 L 10 8 L 9 8 L 9 9 L 8 9 L 8 4 L 10 4 L 10 2 L 11 2 L 11 1 L 9 1 L 9 2 L 8 2 z M 13 0 L 15 0 L 15 2 L 14 2 L 14 1 L 13 1 z M 16 0 L 19 0 L 19 1 L 18 1 L 18 2 L 19 2 L 19 1 L 20 1 L 20 3 L 17 3 L 17 4 L 18 4 L 18 5 L 20 5 L 20 6 L 19 6 L 19 7 L 18 7 L 18 6 L 17 6 L 17 5 L 15 5 L 15 7 L 16 7 L 16 8 L 15 8 L 15 9 L 14 9 L 14 6 L 13 6 L 13 5 L 14 5 L 14 4 L 15 4 L 15 2 L 16 2 z M 20 0 L 21 0 L 21 1 L 20 1 z M 22 0 L 23 0 L 23 2 L 22 2 L 22 3 L 23 3 L 23 4 L 22 4 L 22 5 L 20 5 L 20 3 L 21 3 L 21 1 L 22 1 z M 26 0 L 27 0 L 27 3 L 26 3 z M 28 0 L 29 0 L 29 1 L 28 1 z M 30 0 L 35 0 L 35 1 L 40 1 L 40 0 L 41 0 L 41 3 L 40 3 L 40 4 L 39 4 L 39 2 L 38 2 L 38 3 L 37 3 L 37 2 L 36 2 L 36 5 L 37 5 L 37 8 L 38 8 L 38 10 L 36 10 L 36 9 L 35 9 L 35 8 L 36 8 L 36 6 L 35 6 L 35 8 L 33 8 L 33 9 L 34 9 L 34 10 L 32 10 L 32 4 L 33 4 L 33 7 L 34 7 L 34 4 L 33 4 L 33 2 L 34 2 L 34 3 L 35 3 L 35 2 L 34 2 L 34 1 L 32 1 L 32 4 L 31 4 L 31 3 L 30 3 L 30 4 L 29 4 L 29 3 L 28 3 L 28 2 L 30 2 z M 27 3 L 28 3 L 28 4 L 27 4 z M 28 4 L 29 4 L 29 9 L 28 9 z M 30 4 L 31 4 L 31 7 L 30 7 z M 38 5 L 39 5 L 39 8 L 38 8 z M 12 6 L 13 6 L 13 8 L 12 8 z M 16 6 L 17 6 L 17 7 L 16 7 z M 20 6 L 21 6 L 21 7 L 20 7 z M 40 6 L 41 6 L 41 7 L 40 7 z M 19 7 L 20 7 L 20 8 L 21 8 L 21 9 L 20 9 L 20 10 L 19 10 L 19 11 L 16 11 L 16 10 L 17 10 L 17 9 L 16 9 L 16 8 L 19 8 z M 21 7 L 22 7 L 22 8 L 21 8 z M 0 8 L 3 8 L 3 9 L 2 9 L 2 10 L 1 10 L 1 9 L 0 9 z M 5 8 L 7 8 L 7 9 L 5 9 z M 30 8 L 31 8 L 31 9 L 30 9 z M 39 8 L 45 8 L 45 11 L 44 11 L 44 10 L 43 10 L 43 9 L 42 9 L 42 14 L 44 14 L 44 15 L 43 15 L 43 17 L 42 17 L 42 16 L 40 16 L 40 15 L 41 15 L 41 12 L 38 12 L 38 13 L 36 13 L 36 11 L 38 11 L 38 10 L 39 10 L 39 11 L 40 11 L 40 10 L 41 10 L 41 9 L 39 9 z M 47 8 L 49 8 L 49 11 L 48 11 L 48 9 L 47 9 z M 7 9 L 8 9 L 8 10 L 7 10 z M 9 9 L 12 9 L 12 10 L 10 10 L 10 12 L 9 12 L 9 11 L 8 11 L 8 10 L 9 10 z M 15 9 L 16 9 L 16 10 L 15 10 z M 21 9 L 22 9 L 22 10 L 24 10 L 24 12 L 23 12 L 23 11 L 22 11 L 22 12 L 21 12 L 21 11 L 20 11 L 20 10 L 21 10 z M 24 9 L 26 9 L 26 10 L 27 10 L 27 11 L 25 11 L 25 10 L 24 10 z M 29 9 L 30 9 L 30 11 L 31 11 L 31 13 L 30 13 L 30 12 L 29 12 L 29 11 L 28 11 L 28 10 L 29 10 z M 46 9 L 47 9 L 47 11 L 46 11 z M 0 10 L 1 10 L 1 11 L 0 11 z M 3 10 L 5 10 L 5 11 L 4 11 L 4 12 L 3 12 L 3 13 L 1 13 L 1 12 L 2 12 L 2 11 L 3 11 z M 6 10 L 7 10 L 7 11 L 6 11 z M 14 10 L 15 10 L 15 11 L 16 11 L 16 12 L 17 12 L 17 13 L 16 13 L 16 15 L 17 15 L 17 13 L 18 13 L 18 15 L 19 15 L 19 13 L 18 13 L 18 12 L 20 12 L 20 14 L 21 14 L 21 15 L 20 15 L 20 16 L 21 16 L 21 17 L 20 17 L 20 18 L 19 18 L 19 17 L 18 17 L 18 16 L 17 16 L 17 17 L 16 17 L 16 18 L 17 18 L 17 17 L 18 17 L 18 18 L 19 18 L 19 19 L 20 19 L 20 18 L 21 18 L 21 19 L 22 19 L 22 21 L 21 21 L 21 20 L 19 20 L 19 21 L 20 21 L 20 22 L 19 22 L 19 23 L 18 23 L 18 22 L 17 22 L 17 21 L 18 21 L 18 20 L 17 20 L 17 19 L 16 19 L 16 20 L 17 20 L 17 21 L 16 21 L 16 22 L 15 22 L 15 21 L 14 21 L 14 20 L 12 20 L 12 19 L 11 19 L 11 17 L 12 17 L 12 16 L 13 16 L 13 17 L 14 17 L 14 18 L 15 18 L 15 17 L 14 17 L 14 16 L 15 16 L 15 15 L 14 15 L 14 14 L 15 14 L 15 13 L 14 13 z M 35 10 L 36 10 L 36 11 L 35 11 z M 7 11 L 8 11 L 8 12 L 9 12 L 9 13 L 8 13 L 8 14 L 9 14 L 9 13 L 10 13 L 10 17 L 9 17 L 9 15 L 6 15 L 6 14 L 7 14 L 7 13 L 6 13 L 6 12 L 7 12 z M 11 11 L 13 11 L 13 14 L 11 14 L 11 13 L 12 13 L 12 12 L 11 12 z M 32 11 L 33 11 L 33 13 L 32 13 z M 43 11 L 44 11 L 44 12 L 43 12 z M 45 11 L 46 11 L 46 12 L 47 12 L 47 13 L 45 13 L 45 14 L 44 14 L 44 12 L 45 12 z M 47 11 L 48 11 L 48 12 L 47 12 z M 4 12 L 5 12 L 5 13 L 6 13 L 6 14 L 5 14 L 5 15 L 4 15 L 4 16 L 5 16 L 5 15 L 6 15 L 6 16 L 8 16 L 8 17 L 6 17 L 6 18 L 4 18 L 4 17 L 3 17 L 3 16 L 2 16 L 2 15 L 3 15 L 3 14 L 4 14 z M 24 12 L 25 12 L 25 13 L 24 13 z M 28 12 L 29 12 L 29 13 L 28 13 z M 34 12 L 35 12 L 35 13 L 34 13 z M 0 13 L 1 13 L 1 14 L 0 14 z M 22 13 L 23 13 L 23 14 L 22 14 z M 25 13 L 26 13 L 26 14 L 25 14 z M 35 13 L 36 13 L 36 14 L 37 14 L 37 15 L 38 15 L 38 16 L 37 16 L 37 17 L 38 17 L 38 18 L 37 18 L 37 20 L 39 20 L 39 21 L 36 21 L 36 19 L 35 19 L 35 17 L 34 17 L 34 18 L 33 18 L 33 17 L 32 17 L 32 15 L 33 15 L 33 16 L 35 16 L 35 15 L 33 15 L 33 14 L 35 14 z M 23 14 L 25 14 L 25 15 L 28 15 L 28 14 L 30 14 L 30 15 L 31 15 L 31 17 L 29 17 L 29 18 L 28 18 L 28 16 L 27 16 L 27 17 L 26 17 L 26 18 L 27 18 L 27 19 L 26 19 L 26 20 L 27 20 L 27 21 L 23 21 L 23 20 L 24 20 L 24 19 L 22 19 L 22 18 L 24 18 L 24 17 L 23 17 z M 39 14 L 40 14 L 40 15 L 39 15 z M 46 14 L 47 14 L 47 15 L 46 15 z M 48 14 L 49 14 L 49 19 L 48 19 L 48 16 L 47 16 L 47 15 L 48 15 z M 0 15 L 1 15 L 1 16 L 0 16 z M 11 15 L 12 15 L 12 16 L 11 16 z M 13 15 L 14 15 L 14 16 L 13 16 z M 44 15 L 46 15 L 46 17 L 47 17 L 47 18 L 46 18 L 46 19 L 43 19 L 43 18 L 45 18 L 45 17 L 44 17 z M 1 16 L 2 16 L 2 17 L 1 17 z M 38 16 L 40 16 L 40 18 L 39 18 L 39 17 L 38 17 z M 0 17 L 1 17 L 1 18 L 3 18 L 3 19 L 1 19 L 1 20 L 0 20 z M 21 17 L 22 17 L 22 18 L 21 18 z M 31 17 L 32 17 L 32 18 L 33 18 L 33 20 L 34 20 L 34 22 L 35 22 L 35 21 L 36 21 L 36 23 L 37 23 L 37 24 L 38 24 L 38 26 L 39 26 L 39 25 L 40 25 L 40 27 L 42 27 L 42 28 L 43 28 L 43 27 L 44 27 L 44 28 L 45 28 L 45 29 L 44 29 L 44 30 L 43 30 L 43 29 L 42 29 L 42 30 L 41 30 L 41 28 L 40 28 L 40 30 L 41 30 L 41 32 L 40 32 L 40 31 L 39 31 L 39 32 L 40 32 L 40 33 L 41 33 L 41 35 L 42 35 L 42 38 L 41 38 L 41 40 L 40 40 L 40 38 L 39 38 L 39 36 L 38 36 L 38 37 L 36 37 L 36 36 L 35 36 L 35 35 L 36 35 L 36 34 L 37 34 L 37 35 L 40 35 L 40 34 L 39 34 L 39 33 L 36 33 L 36 32 L 35 32 L 35 33 L 34 33 L 34 30 L 36 30 L 36 27 L 35 27 L 35 26 L 37 26 L 37 25 L 36 25 L 36 24 L 35 24 L 35 23 L 33 23 L 33 21 L 32 21 L 32 19 L 31 19 zM 37 27 L 38 27 L 38 28 L 37 28 z M 38 28 L 39 28 L 39 30 L 38 30 z M 41 17 L 42 17 L 42 20 L 39 20 L 39 19 L 41 19 z M 6 18 L 8 18 L 8 20 L 7 20 L 7 19 L 6 19 z M 29 18 L 30 18 L 30 19 L 29 19 z M 38 18 L 39 18 L 39 19 L 38 19 z M 5 19 L 6 19 L 6 20 L 7 20 L 7 21 L 2 21 L 2 22 L 1 22 L 1 20 L 5 20 z M 9 19 L 11 19 L 11 20 L 9 20 z M 27 19 L 28 19 L 28 20 L 27 20 z M 34 19 L 35 19 L 35 20 L 34 20 z M 47 19 L 48 19 L 48 20 L 49 20 L 49 21 L 47 21 z M 8 20 L 9 20 L 9 22 L 8 22 z M 11 20 L 12 20 L 12 21 L 13 21 L 13 24 L 11 24 L 11 23 L 12 23 L 12 22 L 10 22 L 10 21 L 11 21 z M 28 20 L 31 20 L 31 21 L 29 21 L 29 22 L 28 22 z M 42 20 L 45 20 L 45 21 L 42 21 z M 22 21 L 23 21 L 23 22 L 22 22 z M 41 21 L 42 21 L 42 22 L 41 22 z M 45 21 L 47 21 L 47 22 L 46 22 L 46 25 L 45 25 z M 0 22 L 1 22 L 1 23 L 0 23 z M 3 22 L 4 22 L 4 26 L 3 26 L 3 24 L 2 24 L 2 26 L 1 26 L 1 25 L 0 25 L 0 24 L 1 24 L 1 23 L 3 23 z M 9 22 L 10 22 L 10 23 L 9 23 z M 14 22 L 15 22 L 15 23 L 14 23 z M 16 22 L 17 22 L 17 23 L 16 23 z M 20 22 L 21 22 L 21 23 L 22 23 L 22 25 L 20 25 L 20 26 L 19 26 L 19 25 L 18 25 L 18 24 L 20 24 z M 27 22 L 28 22 L 28 23 L 27 23 z M 29 22 L 30 22 L 30 23 L 31 23 L 31 24 L 30 24 L 30 29 L 28 29 L 28 31 L 27 31 L 27 32 L 25 32 L 25 31 L 24 31 L 24 32 L 25 32 L 25 33 L 24 33 L 24 34 L 25 34 L 25 33 L 28 33 L 28 31 L 29 31 L 29 33 L 30 33 L 30 35 L 29 35 L 29 36 L 31 36 L 31 37 L 30 37 L 30 38 L 31 38 L 31 40 L 29 40 L 29 41 L 30 41 L 30 43 L 31 43 L 31 41 L 32 41 L 32 38 L 31 38 L 31 37 L 32 37 L 32 35 L 31 35 L 31 33 L 32 33 L 32 34 L 33 34 L 33 33 L 34 33 L 34 35 L 33 35 L 33 36 L 34 36 L 34 38 L 37 38 L 37 40 L 38 40 L 38 43 L 36 43 L 36 42 L 37 42 L 37 41 L 36 41 L 36 40 L 35 40 L 35 39 L 33 39 L 33 41 L 34 41 L 34 44 L 33 44 L 33 42 L 32 42 L 32 44 L 31 44 L 31 45 L 30 45 L 30 44 L 29 44 L 29 45 L 28 45 L 28 44 L 27 44 L 27 43 L 29 43 L 29 42 L 27 42 L 27 41 L 28 41 L 28 39 L 26 39 L 26 37 L 27 37 L 27 38 L 28 38 L 28 36 L 27 36 L 27 35 L 25 35 L 25 36 L 26 36 L 26 37 L 24 37 L 24 38 L 22 38 L 22 37 L 23 37 L 23 36 L 24 36 L 24 35 L 23 35 L 23 36 L 22 36 L 22 32 L 23 32 L 23 29 L 24 29 L 24 30 L 25 30 L 25 29 L 26 29 L 26 30 L 27 30 L 27 29 L 26 29 L 26 27 L 27 27 L 27 28 L 29 28 L 29 26 L 27 26 L 27 25 L 28 25 L 28 23 L 29 23 z M 37 22 L 40 22 L 40 24 L 39 24 L 39 23 L 37 23 z M 48 22 L 49 22 L 49 23 L 48 23 z M 15 23 L 16 23 L 16 24 L 15 24 z M 32 23 L 33 23 L 33 24 L 34 24 L 34 27 L 35 27 L 35 28 L 33 28 L 33 29 L 32 29 L 32 27 L 33 27 L 33 25 L 32 25 z M 47 23 L 48 23 L 48 24 L 47 24 z M 9 24 L 11 24 L 11 25 L 10 25 L 10 26 L 9 26 z M 13 24 L 15 24 L 15 25 L 16 25 L 16 27 L 17 27 L 17 29 L 16 29 L 16 31 L 15 31 L 15 29 L 14 29 L 14 28 L 15 28 L 15 27 L 14 27 L 14 28 L 13 28 z M 16 24 L 17 24 L 17 25 L 16 25 z M 48 24 L 49 24 L 49 28 L 48 28 L 48 29 L 46 29 L 46 28 L 47 28 L 47 27 L 48 27 z M 17 25 L 18 25 L 18 26 L 17 26 z M 31 25 L 32 25 L 32 26 L 31 26 z M 46 25 L 47 25 L 47 26 L 46 26 z M 2 26 L 3 26 L 3 27 L 4 27 L 4 28 L 0 28 L 0 27 L 2 27 z M 18 26 L 19 26 L 19 27 L 18 27 z M 20 26 L 21 26 L 21 27 L 20 27 z M 45 26 L 46 26 L 46 28 L 45 28 z M 5 27 L 6 27 L 6 28 L 5 28 z M 7 27 L 8 27 L 8 29 L 6 29 L 6 28 L 7 28 z M 11 27 L 12 27 L 12 29 L 14 29 L 14 31 L 13 31 L 13 30 L 10 30 L 10 28 L 11 28 z M 19 27 L 20 27 L 20 31 L 22 31 L 22 32 L 21 32 L 21 33 L 20 33 L 20 35 L 18 35 L 18 36 L 17 36 L 17 37 L 14 37 L 14 35 L 13 35 L 13 34 L 11 34 L 11 35 L 9 35 L 9 34 L 10 34 L 10 32 L 11 32 L 11 33 L 14 33 L 14 31 L 15 31 L 15 32 L 16 32 L 16 31 L 17 31 L 17 30 L 18 30 L 18 32 L 17 32 L 17 33 L 16 33 L 16 34 L 15 34 L 15 36 L 16 36 L 16 34 L 17 34 L 17 33 L 18 33 L 18 34 L 19 34 L 19 33 L 18 33 L 18 32 L 19 32 L 19 30 L 18 30 L 18 28 L 19 28 z M 22 27 L 24 27 L 24 28 L 22 28 z M 4 28 L 5 28 L 5 30 L 7 30 L 7 31 L 6 31 L 6 32 L 4 32 L 4 33 L 2 33 L 2 32 L 3 32 L 3 31 L 4 31 z M 21 28 L 22 28 L 22 29 L 21 29 z M 24 28 L 25 28 L 25 29 L 24 29 z M 0 29 L 1 29 L 1 30 L 2 30 L 2 31 L 1 31 L 1 32 L 0 32 z M 2 29 L 3 29 L 3 30 L 2 30 z M 8 29 L 9 29 L 9 30 L 8 30 z M 31 29 L 32 29 L 32 31 L 31 31 z M 33 29 L 34 29 L 34 30 L 33 30 z M 45 29 L 46 29 L 46 30 L 47 30 L 47 31 L 46 31 L 46 36 L 47 36 L 47 37 L 45 37 L 45 33 L 44 33 L 44 35 L 42 35 L 42 33 L 41 33 L 41 32 L 42 32 L 42 30 L 43 30 L 43 31 L 44 31 L 44 32 L 45 32 z M 9 30 L 10 30 L 10 32 L 9 32 z M 29 30 L 30 30 L 30 31 L 29 31 z M 48 30 L 49 30 L 49 36 L 48 36 L 48 33 L 47 33 L 47 32 L 48 32 z M 11 31 L 12 31 L 12 32 L 11 32 z M 32 31 L 33 31 L 33 33 L 32 33 z M 6 32 L 7 32 L 7 33 L 6 33 z M 4 33 L 6 33 L 6 34 L 8 34 L 8 35 L 6 35 L 6 36 L 8 36 L 8 37 L 6 37 L 6 38 L 7 38 L 7 39 L 5 39 L 5 38 L 4 38 L 4 37 L 5 37 L 5 36 L 4 36 L 4 37 L 3 37 L 3 34 L 4 34 z M 8 35 L 9 35 L 9 36 L 8 36 z M 12 35 L 13 35 L 13 37 L 12 37 z M 20 35 L 21 35 L 21 36 L 20 36 z M 0 36 L 1 36 L 1 37 L 2 37 L 2 39 L 4 39 L 4 40 L 3 40 L 3 41 L 0 41 L 0 40 L 1 40 L 1 38 L 0 38 z M 9 36 L 10 36 L 10 37 L 9 37 z M 18 36 L 20 36 L 20 38 L 19 38 L 19 39 L 17 39 L 17 37 L 18 37 z M 21 36 L 22 36 L 22 37 L 21 37 z M 10 37 L 11 37 L 11 38 L 10 38 z M 9 38 L 10 38 L 10 40 L 9 40 L 9 41 L 10 41 L 10 42 L 8 42 L 8 41 L 6 41 L 6 40 L 7 40 L 7 39 L 9 39 z M 12 38 L 15 38 L 15 39 L 12 39 z M 20 38 L 21 38 L 21 39 L 20 39 z M 24 38 L 25 38 L 25 39 L 24 39 z M 42 38 L 43 38 L 43 40 L 42 40 z M 44 38 L 45 38 L 45 39 L 44 39 z M 46 38 L 47 38 L 47 39 L 46 39 z M 48 38 L 49 38 L 49 40 L 48 40 z M 19 39 L 20 39 L 20 40 L 21 40 L 21 39 L 22 39 L 22 42 L 21 42 L 21 41 L 18 41 L 18 40 L 19 40 z M 25 39 L 26 39 L 26 40 L 25 40 z M 38 39 L 39 39 L 39 40 L 38 40 z M 45 39 L 46 39 L 46 41 L 45 41 z M 11 40 L 12 40 L 12 42 L 11 42 z M 14 40 L 17 40 L 17 41 L 16 41 L 16 42 L 15 42 L 15 43 L 14 43 L 14 42 L 13 42 L 13 41 L 14 41 z M 34 40 L 35 40 L 35 41 L 34 41 z M 39 40 L 40 40 L 40 43 L 39 43 z M 48 41 L 49 41 L 49 43 L 48 43 z M 10 42 L 11 42 L 11 44 L 12 44 L 12 42 L 13 42 L 13 44 L 15 44 L 15 45 L 13 45 L 13 46 L 12 46 L 12 47 L 13 47 L 13 48 L 12 48 L 12 49 L 10 49 L 10 48 L 11 48 L 11 47 L 10 47 L 10 45 L 9 45 L 9 44 L 10 44 z M 16 42 L 17 42 L 17 44 L 15 44 L 15 43 L 16 43 z M 18 42 L 21 42 L 21 43 L 20 43 L 20 44 L 19 44 L 19 43 L 18 43 z M 8 43 L 9 43 L 9 44 L 8 44 z M 35 43 L 36 43 L 36 44 L 35 44 z M 38 43 L 39 43 L 39 44 L 38 44 z M 45 43 L 46 43 L 46 44 L 47 44 L 47 43 L 48 43 L 48 44 L 49 44 L 49 46 L 48 46 L 48 47 L 44 47 L 44 46 L 45 46 z M 18 44 L 19 44 L 19 45 L 20 45 L 20 46 L 19 46 L 19 47 L 18 47 z M 20 44 L 22 44 L 22 45 L 23 45 L 23 46 L 21 46 L 21 45 L 20 45 z M 32 44 L 33 44 L 33 46 L 32 46 z M 36 44 L 38 44 L 38 45 L 37 45 L 37 46 L 36 46 L 36 47 L 37 47 L 37 48 L 38 48 L 38 47 L 39 47 L 39 49 L 36 49 L 36 48 L 34 48 L 34 49 L 32 49 L 32 47 L 35 47 L 35 45 L 36 45 z M 15 45 L 16 45 L 16 46 L 15 46 z M 24 45 L 25 45 L 25 46 L 26 46 L 26 48 L 28 48 L 28 47 L 27 47 L 27 46 L 26 46 L 26 45 L 28 45 L 28 46 L 29 46 L 29 45 L 30 45 L 30 47 L 31 47 L 31 49 L 30 49 L 30 48 L 29 48 L 29 49 L 22 49 L 22 47 L 23 47 L 23 48 L 25 48 L 25 47 L 24 47 z M 40 45 L 41 45 L 41 47 L 39 47 L 39 46 L 40 46 z M 43 45 L 44 45 L 44 46 L 43 46 z M 8 46 L 9 46 L 9 49 L 8 49 z M 13 46 L 15 46 L 15 47 L 16 47 L 16 48 L 15 48 L 15 49 L 14 49 L 14 47 L 13 47 z M 16 46 L 17 46 L 17 47 L 16 47 z M 31 46 L 32 46 L 32 47 L 31 47 z M 17 47 L 18 47 L 18 48 L 19 48 L 19 49 L 17 49 z M 20 47 L 21 47 L 21 48 L 20 48 z M 41 47 L 42 47 L 42 48 L 43 48 L 43 47 L 44 47 L 44 48 L 45 48 L 45 49 L 41 49 z M 48 48 L 49 48 L 49 49 L 48 49 z"></path><path id="qr squares" d="M0,0h7h0v0v7v0h0h-7h0v0v-7v0h0zM1,1h5h0v0v5v0h0h-5h0v0v-5v0h0zM2,2h3h0v0v3v0h0h-3h0v0v-3v0h0z M42,0h7h0v0v7v0h0h-7h0v0v-7v0h0zM43,1h5h0v0v5v0h0h-5h0v0v-5v0h0zM44,2h3h0v0v3v0h0h-3h0v0v-3v0h0z M0,42h7h0v0v7v0h0h-7h0v0v-7v0h0zM1,43h5h0v0v5v0h0h-5h0v0v-5v0h0zM2,44h3h0v0v3v0h0h-3h0v0v-3v0h0zM4,22h5h0v0v5v0h0h-5h0v0v-5v0h0zM5,23h3h0v0v3v0h0h-3h0v0v-3v0h0zM6,24h1h0v0v1v0h0h-1h0v0v-1v0h0z M22,4h5h0v0v5v0h0h-5h0v0v-5v0h0zM23,5h3h0v0v3v0h0h-3h0v0v-3v0h0zM24,6h1h0v0v1v0h0h-1h0v0v-1v0h0z M22,22h5h0v0v5v0h0h-5h0v0v-5v0h0zM23,23h3h0v0v3v0h0h-3h0v0v-3v0h0zM24,24h1h0v0v1v0h0h-1h0v0v-1v0h0z M22,40h5h0v0v5v0h0h-5h0v0v-5v0h0zM23,41h3h0v0v3v0h0h-3h0v0v-3v0h0zM24,42h1h0v0v1v0h0h-1h0v0v-1v0h0z M40,22h5h0v0v5v0h0h-5h0v0v-5v0h0zM41,23h3h0v0v3v0h0h-3h0v0v-3v0h0zM42,24h1h0v0v1v0h0h-1h0v0v-1v0h0z M40,40h5h0v0v5v0h0h-5h0v0v-5v0h0zM41,41h3h0v0v3v0h0h-3h0v0v-3v0h0zM42,42h1h0v0v1v0h0h-1h0v0v-1v0h0z" fill-rule="evenodd" fill-opacity="1" fill="rgb(0, 0, 0)"></path></svg>